# xmcd
#
# Track frame offsets:
#	150
#	13759
#	27368
#	42556
#	57744
#	70005
#	82266
#	94917
#	107568
#	118144
#	128720
#	140830
#	152940
#	166502
#	180064
#	195916
#
# Disc length: 2821 seconds
#
# Revision: 1
# Processed by: cddbd v1.5.2PL0 Copyright (c) Steve Scherf et al.
# Submitted via: audiograbber 1.83.01
#
DISCID=d90b0310
DTITLE=Various Artist - KTEL6025-2
DYEAR=1900
DGENRE=Karaoke
TTITLE0=Lynn Anderson (vocal) - Top Of The World
TTITLE1=Lynn Anderson - Top Of The World
TTITLE2=Jeannie C Riley (vocal) - Harper Valley PTA
TTITLE3=Jeannie C Riley - Harper Valley PTA
TTITLE4=Donna Fargo (vocal) - Funny Face
TTITLE5=Donna Fargo - Funny Face
TTITLE6=Wanda Jackson (vocal) - Crazy
TTITLE7=Wanda Jackson - Crazy
TTITLE8=Connie Smith (vocal) - Once A Day
TTITLE9=Connie Smith - Once A Day
TTITLE10=Skeeter Davis (vocal) - End Of The World
TTITLE11=Skeeter Davis - End Of The World
TTITLE12=Lacy J Dalton (vocal - Dream Baby
TTITLE13=Lacy J Dalton - Dream Baby
TTITLE14=Judy Rodman (vocal) - I'll Be Your Baby Tonight
TTITLE15=Judy Rodman - I'll Be Your Baby Tonight
EXTD=
EXTT0=
EXTT1=
EXTT2=
EXTT3=
EXTT4=
EXTT5=
EXTT6=
EXTT7=
EXTT8=
EXTT9=
EXTT10=
EXTT11=
EXTT12=
EXTT13=
EXTT14=
EXTT15=
PLAYORDER=
